<mxfile host="drawio-plugin" modified="2022-05-04T02:06:05.989Z" agent="5.0 (Windows NT 6.2; Win64; x64) AppleWebKit/537.36 (KHTML, like Gecko) Chrome/97.0.4692.45 Safari/537.36" etag="2meM1HyIQqyliWyNXExO" version="15.5.4" type="embed"><diagram id="C5RBs43oDa-KdzZeNtuy" name="Page-1"><mxGraphModel dx="3274" dy="613" grid="1" gridSize="10" guides="1" tooltips="1" connect="1" arrows="1" fold="1" page="1" pageScale="1" pageWidth="827" pageHeight="1169" math="0" shadow="0"><root><mxCell id="WIyWlLk6GJQsqaUBKTNV-0"/><mxCell id="WIyWlLk6GJQsqaUBKTNV-1" parent="WIyWlLk6GJQsqaUBKTNV-0"/><mxCell id="lVUzOFcici-vfKjF4Edh-38" value="domain" style="shape=module;align=left;spacingLeft=20;align=center;verticalAlign=top;" parent="WIyWlLk6GJQsqaUBKTNV-1" vertex="1"><mxGeometry x="-840" y="460" width="2210" height="560" as="geometry"/></mxCell><mxCell id="lVUzOFcici-vfKjF4Edh-4" value="Canvas" style="swimlane;fontStyle=1;align=center;verticalAlign=top;childLayout=stackLayout;horizontal=1;startSize=26;horizontalStack=0;resizeParent=1;resizeParentMax=0;resizeLast=0;collapsible=1;marginBottom=0;" parent="WIyWlLk6GJQsqaUBKTNV-1" vertex="1"><mxGeometry x="120" y="600" width="330" height="232" as="geometry"><mxRectangle x="160" y="410" width="80" height="26" as="alternateBounds"/></mxGeometry></mxCell><mxCell id="lVUzOFcici-vfKjF4Edh-21" value="+ GetShapes(): Array&lt;Shape&gt;" style="text;strokeColor=none;fillColor=none;align=left;verticalAlign=top;spacingLeft=4;spacingRight=4;overflow=hidden;rotatable=0;points=[[0,0.5],[1,0.5]];portConstraint=eastwest;" parent="lVUzOFcici-vfKjF4Edh-4" vertex="1"><mxGeometry y="26" width="330" height="26" as="geometry"/></mxCell><mxCell id="lVUzOFcici-vfKjF4Edh-26" value="" style="line;strokeWidth=1;fillColor=none;align=left;verticalAlign=middle;spacingTop=-1;spacingLeft=3;spacingRight=3;rotatable=0;labelPosition=right;points=[];portConstraint=eastwest;" parent="lVUzOFcici-vfKjF4Edh-4" vertex="1"><mxGeometry y="52" width="330" height="8" as="geometry"/></mxCell><mxCell id="lVUzOFcici-vfKjF4Edh-23" value="+ InsertShape(shape: Shape, index: int): void" style="text;strokeColor=none;fillColor=none;align=left;verticalAlign=top;spacingLeft=4;spacingRight=4;overflow=hidden;rotatable=0;points=[[0,0.5],[1,0.5]];portConstraint=eastwest;" parent="lVUzOFcici-vfKjF4Edh-4" vertex="1"><mxGeometry y="60" width="330" height="26" as="geometry"/></mxCell><mxCell id="lVUzOFcici-vfKjF4Edh-25" value="+ OnShapeInsertedSignal(): Signal&lt;Shape&gt;" style="text;strokeColor=none;fillColor=none;align=left;verticalAlign=top;spacingLeft=4;spacingRight=4;overflow=hidden;rotatable=0;points=[[0,0.5],[1,0.5]];portConstraint=eastwest;" parent="lVUzOFcici-vfKjF4Edh-4" vertex="1"><mxGeometry y="86" width="330" height="26" as="geometry"/></mxCell><mxCell id="lVUzOFcici-vfKjF4Edh-27" value="" style="line;strokeWidth=1;fillColor=none;align=left;verticalAlign=middle;spacingTop=-1;spacingLeft=3;spacingRight=3;rotatable=0;labelPosition=right;points=[];portConstraint=eastwest;" parent="lVUzOFcici-vfKjF4Edh-4" vertex="1"><mxGeometry y="112" width="330" height="8" as="geometry"/></mxCell><mxCell id="lVUzOFcici-vfKjF4Edh-24" value="+ DeleteShape(index: int): void" style="text;strokeColor=none;fillColor=none;align=left;verticalAlign=top;spacingLeft=4;spacingRight=4;overflow=hidden;rotatable=0;points=[[0,0.5],[1,0.5]];portConstraint=eastwest;" parent="lVUzOFcici-vfKjF4Edh-4" vertex="1"><mxGeometry y="120" width="330" height="26" as="geometry"/></mxCell><mxCell id="lVUzOFcici-vfKjF4Edh-28" value="+ OnShapeDeletedSignal(): Signal&lt;int&gt;" style="text;strokeColor=none;fillColor=none;align=left;verticalAlign=top;spacingLeft=4;spacingRight=4;overflow=hidden;rotatable=0;points=[[0,0.5],[1,0.5]];portConstraint=eastwest;" parent="lVUzOFcici-vfKjF4Edh-4" vertex="1"><mxGeometry y="146" width="330" height="26" as="geometry"/></mxCell><mxCell id="lVUzOFcici-vfKjF4Edh-119" value="" style="line;strokeWidth=1;fillColor=none;align=left;verticalAlign=middle;spacingTop=-1;spacingLeft=3;spacingRight=3;rotatable=0;labelPosition=right;points=[];portConstraint=eastwest;" parent="lVUzOFcici-vfKjF4Edh-4" vertex="1"><mxGeometry y="172" width="330" height="8" as="geometry"/></mxCell><mxCell id="lVUzOFcici-vfKjF4Edh-120" value="- width, height: number" style="text;strokeColor=none;fillColor=none;align=left;verticalAlign=top;spacingLeft=4;spacingRight=4;overflow=hidden;rotatable=0;points=[[0,0.5],[1,0.5]];portConstraint=eastwest;" parent="lVUzOFcici-vfKjF4Edh-4" vertex="1"><mxGeometry y="180" width="330" height="26" as="geometry"/></mxCell><mxCell id="lVUzOFcici-vfKjF4Edh-118" value="- shapes: Array&lt;Shape&gt;" style="text;strokeColor=none;fillColor=none;align=left;verticalAlign=top;spacingLeft=4;spacingRight=4;overflow=hidden;rotatable=0;points=[[0,0.5],[1,0.5]];portConstraint=eastwest;" parent="lVUzOFcici-vfKjF4Edh-4" vertex="1"><mxGeometry y="206" width="330" height="26" as="geometry"/></mxCell><mxCell id="lVUzOFcici-vfKjF4Edh-17" value="Shape" style="swimlane;fontStyle=1;align=center;verticalAlign=top;childLayout=stackLayout;horizontal=1;startSize=26;horizontalStack=0;resizeParent=1;resizeParentMax=0;resizeLast=0;collapsible=1;marginBottom=0;" parent="WIyWlLk6GJQsqaUBKTNV-1" vertex="1"><mxGeometry x="580" y="634" width="280" height="224" as="geometry"><mxRectangle x="160" y="410" width="80" height="26" as="alternateBounds"/></mxGeometry></mxCell><mxCell id="lVUzOFcici-vfKjF4Edh-18" value="+ GetFrame: Frame" style="text;strokeColor=none;fillColor=none;align=left;verticalAlign=top;spacingLeft=4;spacingRight=4;overflow=hidden;rotatable=0;points=[[0,0.5],[1,0.5]];portConstraint=eastwest;" parent="lVUzOFcici-vfKjF4Edh-17" vertex="1"><mxGeometry y="26" width="280" height="26" as="geometry"/></mxCell><mxCell id="lVUzOFcici-vfKjF4Edh-20" value="+ SetFrame(frame: Frame): void" style="text;strokeColor=none;fillColor=none;align=left;verticalAlign=top;spacingLeft=4;spacingRight=4;overflow=hidden;rotatable=0;points=[[0,0.5],[1,0.5]];portConstraint=eastwest;" parent="lVUzOFcici-vfKjF4Edh-17" vertex="1"><mxGeometry y="52" width="280" height="26" as="geometry"/></mxCell><mxCell id="lVUzOFcici-vfKjF4Edh-59" value="+ OnFrameChangedSignal(): Signal&lt;Frame&gt;" style="text;strokeColor=none;fillColor=none;align=left;verticalAlign=top;spacingLeft=4;spacingRight=4;overflow=hidden;rotatable=0;points=[[0,0.5],[1,0.5]];portConstraint=eastwest;" parent="lVUzOFcici-vfKjF4Edh-17" vertex="1"><mxGeometry y="78" width="280" height="26" as="geometry"/></mxCell><mxCell id="lVUzOFcici-vfKjF4Edh-113" value="" style="line;strokeWidth=1;fillColor=none;align=left;verticalAlign=middle;spacingTop=-1;spacingLeft=3;spacingRight=3;rotatable=0;labelPosition=right;points=[];portConstraint=eastwest;" parent="lVUzOFcici-vfKjF4Edh-17" vertex="1"><mxGeometry y="104" width="280" height="8" as="geometry"/></mxCell><mxCell id="lVUzOFcici-vfKjF4Edh-42" value="+ GetType(): ShapeType" style="text;strokeColor=none;fillColor=none;align=left;verticalAlign=top;spacingLeft=4;spacingRight=4;overflow=hidden;rotatable=0;points=[[0,0.5],[1,0.5]];portConstraint=eastwest;" parent="lVUzOFcici-vfKjF4Edh-17" vertex="1"><mxGeometry y="112" width="280" height="26" as="geometry"/></mxCell><mxCell id="lVUzOFcici-vfKjF4Edh-115" value="+ GetId(): string" style="text;strokeColor=none;fillColor=none;align=left;verticalAlign=top;spacingLeft=4;spacingRight=4;overflow=hidden;rotatable=0;points=[[0,0.5],[1,0.5]];portConstraint=eastwest;" parent="lVUzOFcici-vfKjF4Edh-17" vertex="1"><mxGeometry y="138" width="280" height="26" as="geometry"/></mxCell><mxCell id="lVUzOFcici-vfKjF4Edh-114" value="" style="line;strokeWidth=1;fillColor=none;align=left;verticalAlign=middle;spacingTop=-1;spacingLeft=3;spacingRight=3;rotatable=0;labelPosition=right;points=[];portConstraint=eastwest;" parent="lVUzOFcici-vfKjF4Edh-17" vertex="1"><mxGeometry y="164" width="280" height="8" as="geometry"/></mxCell><mxCell id="lVUzOFcici-vfKjF4Edh-116" value="- frame: Frame" style="text;strokeColor=none;fillColor=none;align=left;verticalAlign=top;spacingLeft=4;spacingRight=4;overflow=hidden;rotatable=0;points=[[0,0.5],[1,0.5]];portConstraint=eastwest;" parent="lVUzOFcici-vfKjF4Edh-17" vertex="1"><mxGeometry y="172" width="280" height="26" as="geometry"/></mxCell><mxCell id="lVUzOFcici-vfKjF4Edh-117" value="- id: string" style="text;strokeColor=none;fillColor=none;align=left;verticalAlign=top;spacingLeft=4;spacingRight=4;overflow=hidden;rotatable=0;points=[[0,0.5],[1,0.5]];portConstraint=eastwest;" parent="lVUzOFcici-vfKjF4Edh-17" vertex="1"><mxGeometry y="198" width="280" height="26" as="geometry"/></mxCell><mxCell id="lVUzOFcici-vfKjF4Edh-40" value="" style="endArrow=diamondThin;endFill=0;endSize=24;html=1;rounded=0;entryX=1;entryY=0.5;entryDx=0;entryDy=0;exitX=0;exitY=0.5;exitDx=0;exitDy=0;" parent="WIyWlLk6GJQsqaUBKTNV-1" source="lVUzOFcici-vfKjF4Edh-18" target="lVUzOFcici-vfKjF4Edh-23" edge="1"><mxGeometry width="160" relative="1" as="geometry"><mxPoint x="490" y="380" as="sourcePoint"/><mxPoint x="650" y="380" as="targetPoint"/></mxGeometry></mxCell><mxCell id="lVUzOFcici-vfKjF4Edh-60" value="view" style="shape=module;align=left;spacingLeft=20;align=center;verticalAlign=top;" parent="WIyWlLk6GJQsqaUBKTNV-1" vertex="1"><mxGeometry x="-840" y="1700" width="2210" height="870" as="geometry"/></mxCell><mxCell id="lVUzOFcici-vfKjF4Edh-61" value="CanvasView" style="swimlane;fontStyle=1;align=center;verticalAlign=top;childLayout=stackLayout;horizontal=1;startSize=26;horizontalStack=0;resizeParent=1;resizeParentMax=0;resizeLast=0;collapsible=1;marginBottom=0;" parent="WIyWlLk6GJQsqaUBKTNV-1" vertex="1"><mxGeometry x="70" y="1910" width="330" height="130" as="geometry"><mxRectangle x="160" y="410" width="80" height="26" as="alternateBounds"/></mxGeometry></mxCell><mxCell id="zq07lOfsanNuQa8wARK5-48" value="+ addShape(shape: ShapeView): void" style="text;strokeColor=none;fillColor=none;align=left;verticalAlign=top;spacingLeft=4;spacingRight=4;overflow=hidden;rotatable=0;points=[[0,0.5],[1,0.5]];portConstraint=eastwest;" parent="lVUzOFcici-vfKjF4Edh-61" vertex="1"><mxGeometry y="26" width="330" height="26" as="geometry"/></mxCell><mxCell id="zq07lOfsanNuQa8wARK5-49" value="+ deleteShape(shape: ShapeView): void" style="text;strokeColor=none;fillColor=none;align=left;verticalAlign=top;spacingLeft=4;spacingRight=4;overflow=hidden;rotatable=0;points=[[0,0.5],[1,0.5]];portConstraint=eastwest;" parent="lVUzOFcici-vfKjF4Edh-61" vertex="1"><mxGeometry y="52" width="330" height="26" as="geometry"/></mxCell><mxCell id="zq07lOfsanNuQa8wARK5-51" value="+ setWidth(width: number): void" style="text;strokeColor=none;fillColor=none;align=left;verticalAlign=top;spacingLeft=4;spacingRight=4;overflow=hidden;rotatable=0;points=[[0,0.5],[1,0.5]];portConstraint=eastwest;" parent="lVUzOFcici-vfKjF4Edh-61" vertex="1"><mxGeometry y="78" width="330" height="26" as="geometry"/></mxCell><mxCell id="zq07lOfsanNuQa8wARK5-52" value="+ setHeight(height: number): void" style="text;strokeColor=none;fillColor=none;align=left;verticalAlign=top;spacingLeft=4;spacingRight=4;overflow=hidden;rotatable=0;points=[[0,0.5],[1,0.5]];portConstraint=eastwest;" parent="lVUzOFcici-vfKjF4Edh-61" vertex="1"><mxGeometry y="104" width="330" height="26" as="geometry"/></mxCell><mxCell id="lVUzOFcici-vfKjF4Edh-69" value="ShapeView" style="swimlane;fontStyle=1;align=center;verticalAlign=top;childLayout=stackLayout;horizontal=1;startSize=26;horizontalStack=0;resizeParent=1;resizeParentMax=0;resizeLast=0;collapsible=1;marginBottom=0;" parent="WIyWlLk6GJQsqaUBKTNV-1" vertex="1"><mxGeometry x="910.5" y="1770" width="330" height="78" as="geometry"><mxRectangle x="160" y="410" width="80" height="26" as="alternateBounds"/></mxGeometry></mxCell><mxCell id="zq07lOfsanNuQa8wARK5-32" value="+ setFrame(frame: Frame): void" style="text;strokeColor=none;fillColor=none;align=left;verticalAlign=top;spacingLeft=4;spacingRight=4;overflow=hidden;rotatable=0;points=[[0,0.5],[1,0.5]];portConstraint=eastwest;" parent="lVUzOFcici-vfKjF4Edh-69" vertex="1"><mxGeometry y="26" width="330" height="26" as="geometry"/></mxCell><mxCell id="zq07lOfsanNuQa8wARK5-33" value="+ setPosition(left: number, top: number): void" style="text;strokeColor=none;fillColor=none;align=left;verticalAlign=top;spacingLeft=4;spacingRight=4;overflow=hidden;rotatable=0;points=[[0,0.5],[1,0.5]];portConstraint=eastwest;" parent="lVUzOFcici-vfKjF4Edh-69" vertex="1"><mxGeometry y="52" width="330" height="26" as="geometry"/></mxCell><mxCell id="lVUzOFcici-vfKjF4Edh-70" value="SelectionView" style="swimlane;fontStyle=1;align=center;verticalAlign=top;childLayout=stackLayout;horizontal=1;startSize=26;horizontalStack=0;resizeParent=1;resizeParentMax=0;resizeLast=0;collapsible=1;marginBottom=0;" parent="WIyWlLk6GJQsqaUBKTNV-1" vertex="1"><mxGeometry x="497" y="1770" width="330" height="52" as="geometry"><mxRectangle x="160" y="410" width="80" height="26" as="alternateBounds"/></mxGeometry></mxCell><mxCell id="zq07lOfsanNuQa8wARK5-53" value="+ getPoints(): Tuple&lt;RectangleView, 4&gt;" style="text;strokeColor=none;fillColor=none;align=left;verticalAlign=top;spacingLeft=4;spacingRight=4;overflow=hidden;rotatable=0;points=[[0,0.5],[1,0.5]];portConstraint=eastwest;" parent="lVUzOFcici-vfKjF4Edh-70" vertex="1"><mxGeometry y="26" width="330" height="26" as="geometry"/></mxCell><mxCell id="lVUzOFcici-vfKjF4Edh-71" value="ToolbarView" style="swimlane;fontStyle=1;align=center;verticalAlign=top;childLayout=stackLayout;horizontal=1;startSize=26;horizontalStack=0;resizeParent=1;resizeParentMax=0;resizeLast=0;collapsible=1;marginBottom=0;" parent="WIyWlLk6GJQsqaUBKTNV-1" vertex="1"><mxGeometry x="-300" y="1744" width="330" height="104" as="geometry"><mxRectangle x="160" y="410" width="80" height="26" as="alternateBounds"/></mxGeometry></mxCell><mxCell id="zq07lOfsanNuQa8wARK5-43" value="+ getAddShapeSignal(): Signal&lt;ShapeType&gt;" style="text;strokeColor=none;fillColor=none;align=left;verticalAlign=top;spacingLeft=4;spacingRight=4;overflow=hidden;rotatable=0;points=[[0,0.5],[1,0.5]];portConstraint=eastwest;" parent="lVUzOFcici-vfKjF4Edh-71" vertex="1"><mxGeometry y="26" width="330" height="26" as="geometry"/></mxCell><mxCell id="zq07lOfsanNuQa8wARK5-44" value="+ getOnSaveSignal(): Signal&lt;void&gt;" style="text;strokeColor=none;fillColor=none;align=left;verticalAlign=top;spacingLeft=4;spacingRight=4;overflow=hidden;rotatable=0;points=[[0,0.5],[1,0.5]];portConstraint=eastwest;" parent="lVUzOFcici-vfKjF4Edh-71" vertex="1"><mxGeometry y="52" width="330" height="26" as="geometry"/></mxCell><mxCell id="zq07lOfsanNuQa8wARK5-45" value="+ getOnUploadSignal(): Signal&lt;string&gt;" style="text;strokeColor=none;fillColor=none;align=left;verticalAlign=top;spacingLeft=4;spacingRight=4;overflow=hidden;rotatable=0;points=[[0,0.5],[1,0.5]];portConstraint=eastwest;" parent="lVUzOFcici-vfKjF4Edh-71" vertex="1"><mxGeometry y="78" width="330" height="26" as="geometry"/></mxCell><mxCell id="lVUzOFcici-vfKjF4Edh-81" value="common" style="shape=module;align=left;spacingLeft=20;align=center;verticalAlign=top;" parent="WIyWlLk6GJQsqaUBKTNV-1" vertex="1"><mxGeometry x="-2140" y="497" width="1210" height="810" as="geometry"/></mxCell><mxCell id="lVUzOFcici-vfKjF4Edh-82" value="Signal" style="swimlane;fontStyle=1;align=center;verticalAlign=top;childLayout=stackLayout;horizontal=1;startSize=26;horizontalStack=0;resizeParent=1;resizeParentMax=0;resizeLast=0;collapsible=1;marginBottom=0;" parent="WIyWlLk6GJQsqaUBKTNV-1" vertex="1"><mxGeometry x="-2050" y="559" width="220" height="104" as="geometry"><mxRectangle x="160" y="410" width="80" height="26" as="alternateBounds"/></mxGeometry></mxCell><mxCell id="lVUzOFcici-vfKjF4Edh-83" value="+ Dispatch(value: T): void" style="text;strokeColor=none;fillColor=none;align=left;verticalAlign=top;spacingLeft=4;spacingRight=4;overflow=hidden;rotatable=0;points=[[0,0.5],[1,0.5]];portConstraint=eastwest;" parent="lVUzOFcici-vfKjF4Edh-82" vertex="1"><mxGeometry y="26" width="220" height="26" as="geometry"/></mxCell><mxCell id="lVUzOFcici-vfKjF4Edh-84" value="+ Add(fn: (T) =&gt; void): void" style="text;strokeColor=none;fillColor=none;align=left;verticalAlign=top;spacingLeft=4;spacingRight=4;overflow=hidden;rotatable=0;points=[[0,0.5],[1,0.5]];portConstraint=eastwest;" parent="lVUzOFcici-vfKjF4Edh-82" vertex="1"><mxGeometry y="52" width="220" height="26" as="geometry"/></mxCell><mxCell id="lVUzOFcici-vfKjF4Edh-85" value="+ Remove(fn: (T) =&gt; void): void" style="text;strokeColor=none;fillColor=none;align=left;verticalAlign=top;spacingLeft=4;spacingRight=4;overflow=hidden;rotatable=0;points=[[0,0.5],[1,0.5]];portConstraint=eastwest;" parent="lVUzOFcici-vfKjF4Edh-82" vertex="1"><mxGeometry y="78" width="220" height="26" as="geometry"/></mxCell><mxCell id="lVUzOFcici-vfKjF4Edh-86" value="&lt;&lt;Enum&gt;&gt;&#10;ShapeType" style="swimlane;fontStyle=1;align=center;verticalAlign=top;childLayout=stackLayout;horizontal=1;startSize=40;horizontalStack=0;resizeParent=1;resizeParentMax=0;resizeLast=0;collapsible=1;marginBottom=0;" parent="WIyWlLk6GJQsqaUBKTNV-1" vertex="1"><mxGeometry x="-1250" y="519" width="190" height="118" as="geometry"><mxRectangle x="160" y="410" width="80" height="26" as="alternateBounds"/></mxGeometry></mxCell><mxCell id="lVUzOFcici-vfKjF4Edh-87" value="rectangle" style="text;strokeColor=none;fillColor=none;align=left;verticalAlign=top;spacingLeft=4;spacingRight=4;overflow=hidden;rotatable=0;points=[[0,0.5],[1,0.5]];portConstraint=eastwest;" parent="lVUzOFcici-vfKjF4Edh-86" vertex="1"><mxGeometry y="40" width="190" height="26" as="geometry"/></mxCell><mxCell id="lVUzOFcici-vfKjF4Edh-88" value="triangle" style="text;strokeColor=none;fillColor=none;align=left;verticalAlign=top;spacingLeft=4;spacingRight=4;overflow=hidden;rotatable=0;points=[[0,0.5],[1,0.5]];portConstraint=eastwest;" parent="lVUzOFcici-vfKjF4Edh-86" vertex="1"><mxGeometry y="66" width="190" height="26" as="geometry"/></mxCell><mxCell id="lVUzOFcici-vfKjF4Edh-89" value="ellipse" style="text;strokeColor=none;fillColor=none;align=left;verticalAlign=top;spacingLeft=4;spacingRight=4;overflow=hidden;rotatable=0;points=[[0,0.5],[1,0.5]];portConstraint=eastwest;" parent="lVUzOFcici-vfKjF4Edh-86" vertex="1"><mxGeometry y="92" width="190" height="26" as="geometry"/></mxCell><mxCell id="lVUzOFcici-vfKjF4Edh-90" value="&lt;&lt;struct&gt;&gt;&#10;Frame" style="swimlane;fontStyle=1;align=center;verticalAlign=top;childLayout=stackLayout;horizontal=1;startSize=40;horizontalStack=0;resizeParent=1;resizeParentMax=0;resizeLast=0;collapsible=1;marginBottom=0;" parent="WIyWlLk6GJQsqaUBKTNV-1" vertex="1"><mxGeometry x="-1510" y="519" width="190" height="144" as="geometry"><mxRectangle x="160" y="410" width="80" height="26" as="alternateBounds"/></mxGeometry></mxCell><mxCell id="lVUzOFcici-vfKjF4Edh-91" value="left" style="text;strokeColor=none;fillColor=none;align=left;verticalAlign=top;spacingLeft=4;spacingRight=4;overflow=hidden;rotatable=0;points=[[0,0.5],[1,0.5]];portConstraint=eastwest;" parent="lVUzOFcici-vfKjF4Edh-90" vertex="1"><mxGeometry y="40" width="190" height="26" as="geometry"/></mxCell><mxCell id="lVUzOFcici-vfKjF4Edh-92" value="top" style="text;strokeColor=none;fillColor=none;align=left;verticalAlign=top;spacingLeft=4;spacingRight=4;overflow=hidden;rotatable=0;points=[[0,0.5],[1,0.5]];portConstraint=eastwest;" parent="lVUzOFcici-vfKjF4Edh-90" vertex="1"><mxGeometry y="66" width="190" height="26" as="geometry"/></mxCell><mxCell id="lVUzOFcici-vfKjF4Edh-93" value="width" style="text;strokeColor=none;fillColor=none;align=left;verticalAlign=top;spacingLeft=4;spacingRight=4;overflow=hidden;rotatable=0;points=[[0,0.5],[1,0.5]];portConstraint=eastwest;" parent="lVUzOFcici-vfKjF4Edh-90" vertex="1"><mxGeometry y="92" width="190" height="26" as="geometry"/></mxCell><mxCell id="lVUzOFcici-vfKjF4Edh-94" value="height" style="text;strokeColor=none;fillColor=none;align=left;verticalAlign=top;spacingLeft=4;spacingRight=4;overflow=hidden;rotatable=0;points=[[0,0.5],[1,0.5]];portConstraint=eastwest;" parent="lVUzOFcici-vfKjF4Edh-90" vertex="1"><mxGeometry y="118" width="190" height="26" as="geometry"/></mxCell><mxCell id="lVUzOFcici-vfKjF4Edh-95" value="&lt;&lt;struct&gt;&gt;&#10;Point" style="swimlane;fontStyle=1;align=center;verticalAlign=top;childLayout=stackLayout;horizontal=1;startSize=40;horizontalStack=0;resizeParent=1;resizeParentMax=0;resizeLast=0;collapsible=1;marginBottom=0;" parent="WIyWlLk6GJQsqaUBKTNV-1" vertex="1"><mxGeometry x="-1710" y="579" width="100" height="92" as="geometry"><mxRectangle x="160" y="410" width="80" height="26" as="alternateBounds"/></mxGeometry></mxCell><mxCell id="lVUzOFcici-vfKjF4Edh-96" value="x" style="text;strokeColor=none;fillColor=none;align=left;verticalAlign=top;spacingLeft=4;spacingRight=4;overflow=hidden;rotatable=0;points=[[0,0.5],[1,0.5]];portConstraint=eastwest;" parent="lVUzOFcici-vfKjF4Edh-95" vertex="1"><mxGeometry y="40" width="100" height="26" as="geometry"/></mxCell><mxCell id="lVUzOFcici-vfKjF4Edh-97" value="y" style="text;strokeColor=none;fillColor=none;align=left;verticalAlign=top;spacingLeft=4;spacingRight=4;overflow=hidden;rotatable=0;points=[[0,0.5],[1,0.5]];portConstraint=eastwest;" parent="lVUzOFcici-vfKjF4Edh-95" vertex="1"><mxGeometry y="66" width="100" height="26" as="geometry"/></mxCell><mxCell id="lVUzOFcici-vfKjF4Edh-99" value="presenter" style="shape=module;align=left;spacingLeft=20;align=center;verticalAlign=top;" parent="WIyWlLk6GJQsqaUBKTNV-1" vertex="1"><mxGeometry x="-840" y="1070" width="2210" height="560" as="geometry"/></mxCell><mxCell id="lVUzOFcici-vfKjF4Edh-105" value="ShapePresenter" style="swimlane;fontStyle=1;align=center;verticalAlign=top;childLayout=stackLayout;horizontal=1;startSize=26;horizontalStack=0;resizeParent=1;resizeParentMax=0;resizeLast=0;collapsible=1;marginBottom=0;" parent="WIyWlLk6GJQsqaUBKTNV-1" vertex="1"><mxGeometry x="970" y="1240" width="230" height="130" as="geometry"><mxRectangle x="160" y="410" width="80" height="26" as="alternateBounds"/></mxGeometry></mxCell><mxCell id="lVUzOFcici-vfKjF4Edh-106" value="+ getView(): ShapeView" style="text;strokeColor=none;fillColor=none;align=left;verticalAlign=top;spacingLeft=4;spacingRight=4;overflow=hidden;rotatable=0;points=[[0,0.5],[1,0.5]];portConstraint=eastwest;" parent="lVUzOFcici-vfKjF4Edh-105" vertex="1"><mxGeometry y="26" width="230" height="26" as="geometry"/></mxCell><mxCell id="lVUzOFcici-vfKjF4Edh-107" value="+ getModel(): Shape" style="text;strokeColor=none;fillColor=none;align=left;verticalAlign=top;spacingLeft=4;spacingRight=4;overflow=hidden;rotatable=0;points=[[0,0.5],[1,0.5]];portConstraint=eastwest;" parent="lVUzOFcici-vfKjF4Edh-105" vertex="1"><mxGeometry y="52" width="230" height="26" as="geometry"/></mxCell><mxCell id="6" value="- moveShape(event: MouseEvent): void" style="text;strokeColor=none;fillColor=none;align=left;verticalAlign=top;spacingLeft=4;spacingRight=4;overflow=hidden;rotatable=0;points=[[0,0.5],[1,0.5]];portConstraint=eastwest;" vertex="1" parent="lVUzOFcici-vfKjF4Edh-105"><mxGeometry y="78" width="230" height="26" as="geometry"/></mxCell><mxCell id="7" value="- remove(): void" style="text;strokeColor=none;fillColor=none;align=left;verticalAlign=top;spacingLeft=4;spacingRight=4;overflow=hidden;rotatable=0;points=[[0,0.5],[1,0.5]];portConstraint=eastwest;" vertex="1" parent="lVUzOFcici-vfKjF4Edh-105"><mxGeometry y="104" width="230" height="26" as="geometry"/></mxCell><mxCell id="lVUzOFcici-vfKjF4Edh-123" value="" style="endArrow=diamondThin;endFill=0;endSize=24;html=1;rounded=0;" parent="WIyWlLk6GJQsqaUBKTNV-1" source="lVUzOFcici-vfKjF4Edh-17" target="lVUzOFcici-vfKjF4Edh-105" edge="1"><mxGeometry width="160" relative="1" as="geometry"><mxPoint x="550" y="1130" as="sourcePoint"/><mxPoint x="710" y="1130" as="targetPoint"/></mxGeometry></mxCell><mxCell id="lVUzOFcici-vfKjF4Edh-126" value="" style="endArrow=diamondThin;endFill=0;endSize=24;html=1;rounded=0;" parent="WIyWlLk6GJQsqaUBKTNV-1" source="lVUzOFcici-vfKjF4Edh-69" target="lVUzOFcici-vfKjF4Edh-105" edge="1"><mxGeometry width="160" relative="1" as="geometry"><mxPoint x="550" y="1480" as="sourcePoint"/><mxPoint x="710" y="1480" as="targetPoint"/></mxGeometry></mxCell><mxCell id="Wp4D12kqKLohDoQyKvnD-0" value="EditorPresenter" style="swimlane;fontStyle=1;align=center;verticalAlign=top;childLayout=stackLayout;horizontal=1;startSize=26;horizontalStack=0;resizeParent=1;resizeParentMax=0;resizeLast=0;collapsible=1;marginBottom=0;" parent="WIyWlLk6GJQsqaUBKTNV-1" vertex="1"><mxGeometry x="-710" y="1270" width="330" height="104" as="geometry"><mxRectangle x="160" y="410" width="80" height="26" as="alternateBounds"/></mxGeometry></mxCell><mxCell id="Wp4D12kqKLohDoQyKvnD-4" value="- setModel(canvas: Canvas): void" style="text;strokeColor=none;fillColor=none;align=left;verticalAlign=top;spacingLeft=4;spacingRight=4;overflow=hidden;rotatable=0;points=[[0,0.5],[1,0.5]];portConstraint=eastwest;" parent="Wp4D12kqKLohDoQyKvnD-0" vertex="1"><mxGeometry y="26" width="330" height="26" as="geometry"/></mxCell><mxCell id="1" value="- saveCanvas(): void" style="text;strokeColor=none;fillColor=none;align=left;verticalAlign=top;spacingLeft=4;spacingRight=4;overflow=hidden;rotatable=0;points=[[0,0.5],[1,0.5]];portConstraint=eastwest;" vertex="1" parent="Wp4D12kqKLohDoQyKvnD-0"><mxGeometry y="52" width="330" height="26" as="geometry"/></mxCell><mxCell id="2" value="- uploadCanvas(file: string): void" style="text;strokeColor=none;fillColor=none;align=left;verticalAlign=top;spacingLeft=4;spacingRight=4;overflow=hidden;rotatable=0;points=[[0,0.5],[1,0.5]];portConstraint=eastwest;" vertex="1" parent="Wp4D12kqKLohDoQyKvnD-0"><mxGeometry y="78" width="330" height="26" as="geometry"/></mxCell><mxCell id="Wp4D12kqKLohDoQyKvnD-11" value="ToolbarPresenter" style="swimlane;fontStyle=1;align=center;verticalAlign=top;childLayout=stackLayout;horizontal=1;startSize=26;horizontalStack=0;resizeParent=1;resizeParentMax=0;resizeLast=0;collapsible=1;marginBottom=0;" parent="WIyWlLk6GJQsqaUBKTNV-1" vertex="1"><mxGeometry x="-290" y="1218" width="330" height="104" as="geometry"><mxRectangle x="160" y="410" width="80" height="26" as="alternateBounds"/></mxGeometry></mxCell><mxCell id="Wp4D12kqKLohDoQyKvnD-12" value="+ getOnSaveSignal(): void" style="text;strokeColor=none;fillColor=none;align=left;verticalAlign=top;spacingLeft=4;spacingRight=4;overflow=hidden;rotatable=0;points=[[0,0.5],[1,0.5]];portConstraint=eastwest;" parent="Wp4D12kqKLohDoQyKvnD-11" vertex="1"><mxGeometry y="26" width="330" height="26" as="geometry"/></mxCell><mxCell id="zq07lOfsanNuQa8wARK5-39" value="+ getOnUploadSignal(): void" style="text;strokeColor=none;fillColor=none;align=left;verticalAlign=top;spacingLeft=4;spacingRight=4;overflow=hidden;rotatable=0;points=[[0,0.5],[1,0.5]];portConstraint=eastwest;" parent="Wp4D12kqKLohDoQyKvnD-11" vertex="1"><mxGeometry y="52" width="330" height="26" as="geometry"/></mxCell><mxCell id="3" value="- addShape(type: ShapeType): void" style="text;strokeColor=none;fillColor=none;align=left;verticalAlign=top;spacingLeft=4;spacingRight=4;overflow=hidden;rotatable=0;points=[[0,0.5],[1,0.5]];portConstraint=eastwest;" vertex="1" parent="Wp4D12kqKLohDoQyKvnD-11"><mxGeometry y="78" width="330" height="26" as="geometry"/></mxCell><mxCell id="Wp4D12kqKLohDoQyKvnD-13" value="CanvasPresenter" style="swimlane;fontStyle=1;align=center;verticalAlign=top;childLayout=stackLayout;horizontal=1;startSize=26;horizontalStack=0;resizeParent=1;resizeParentMax=0;resizeLast=0;collapsible=1;marginBottom=0;" parent="WIyWlLk6GJQsqaUBKTNV-1" vertex="1"><mxGeometry x="84" y="1430" width="330" height="130" as="geometry"><mxRectangle x="160" y="410" width="80" height="26" as="alternateBounds"/></mxGeometry></mxCell><mxCell id="Wp4D12kqKLohDoQyKvnD-14" value="+ addShape(type: ShapeType): void" style="text;strokeColor=none;fillColor=none;align=left;verticalAlign=top;spacingLeft=4;spacingRight=4;overflow=hidden;rotatable=0;points=[[0,0.5],[1,0.5]];portConstraint=eastwest;" parent="Wp4D12kqKLohDoQyKvnD-13" vertex="1"><mxGeometry y="26" width="330" height="26" as="geometry"/></mxCell><mxCell id="zq07lOfsanNuQa8wARK5-41" value="+ getView(): CanvasView" style="text;strokeColor=none;fillColor=none;align=left;verticalAlign=top;spacingLeft=4;spacingRight=4;overflow=hidden;rotatable=0;points=[[0,0.5],[1,0.5]];portConstraint=eastwest;" parent="Wp4D12kqKLohDoQyKvnD-13" vertex="1"><mxGeometry y="52" width="330" height="26" as="geometry"/></mxCell><mxCell id="zq07lOfsanNuQa8wARK5-42" value="+ getModel(): Canvas" style="text;strokeColor=none;fillColor=none;align=left;verticalAlign=top;spacingLeft=4;spacingRight=4;overflow=hidden;rotatable=0;points=[[0,0.5],[1,0.5]];portConstraint=eastwest;" parent="Wp4D12kqKLohDoQyKvnD-13" vertex="1"><mxGeometry y="78" width="330" height="26" as="geometry"/></mxCell><mxCell id="4" value="- removeSelection(): void" style="text;strokeColor=none;fillColor=none;align=left;verticalAlign=top;spacingLeft=4;spacingRight=4;overflow=hidden;rotatable=0;points=[[0,0.5],[1,0.5]];portConstraint=eastwest;" vertex="1" parent="Wp4D12kqKLohDoQyKvnD-13"><mxGeometry y="104" width="330" height="26" as="geometry"/></mxCell><mxCell id="Wp4D12kqKLohDoQyKvnD-15" value="EditorView" style="swimlane;fontStyle=1;align=center;verticalAlign=top;childLayout=stackLayout;horizontal=1;startSize=26;horizontalStack=0;resizeParent=1;resizeParentMax=0;resizeLast=0;collapsible=1;marginBottom=0;" parent="WIyWlLk6GJQsqaUBKTNV-1" vertex="1"><mxGeometry x="-710" y="1770" width="330" height="78" as="geometry"><mxRectangle x="160" y="410" width="80" height="26" as="alternateBounds"/></mxGeometry></mxCell><mxCell id="zq07lOfsanNuQa8wARK5-46" value="+ getToolbar(): ToolbarView" style="text;strokeColor=none;fillColor=none;align=left;verticalAlign=top;spacingLeft=4;spacingRight=4;overflow=hidden;rotatable=0;points=[[0,0.5],[1,0.5]];portConstraint=eastwest;" parent="Wp4D12kqKLohDoQyKvnD-15" vertex="1"><mxGeometry y="26" width="330" height="26" as="geometry"/></mxCell><mxCell id="zq07lOfsanNuQa8wARK5-47" value="+ getCanvas(): CanvasView" style="text;strokeColor=none;fillColor=none;align=left;verticalAlign=top;spacingLeft=4;spacingRight=4;overflow=hidden;rotatable=0;points=[[0,0.5],[1,0.5]];portConstraint=eastwest;" parent="Wp4D12kqKLohDoQyKvnD-15" vertex="1"><mxGeometry y="52" width="330" height="26" as="geometry"/></mxCell><mxCell id="vJ88vTQuRLcGK84TbQeg-0" value="" style="endArrow=diamondThin;endFill=1;endSize=24;html=1;rounded=0;" parent="WIyWlLk6GJQsqaUBKTNV-1" source="lVUzOFcici-vfKjF4Edh-4" target="Wp4D12kqKLohDoQyKvnD-0" edge="1"><mxGeometry width="160" relative="1" as="geometry"><mxPoint x="50" y="1160" as="sourcePoint"/><mxPoint x="210" y="1160" as="targetPoint"/></mxGeometry></mxCell><mxCell id="vJ88vTQuRLcGK84TbQeg-1" value="" style="endArrow=diamondThin;endFill=0;endSize=24;html=1;rounded=0;" parent="WIyWlLk6GJQsqaUBKTNV-1" source="lVUzOFcici-vfKjF4Edh-4" target="Wp4D12kqKLohDoQyKvnD-11" edge="1"><mxGeometry width="160" relative="1" as="geometry"><mxPoint x="50" y="1160" as="sourcePoint"/><mxPoint x="210" y="1160" as="targetPoint"/></mxGeometry></mxCell><mxCell id="vJ88vTQuRLcGK84TbQeg-2" value="" style="endArrow=diamondThin;endFill=0;endSize=24;html=1;rounded=0;" parent="WIyWlLk6GJQsqaUBKTNV-1" source="lVUzOFcici-vfKjF4Edh-4" target="Wp4D12kqKLohDoQyKvnD-13" edge="1"><mxGeometry width="160" relative="1" as="geometry"><mxPoint x="50" y="1160" as="sourcePoint"/><mxPoint x="210" y="1160" as="targetPoint"/></mxGeometry></mxCell><mxCell id="vJ88vTQuRLcGK84TbQeg-3" value="SelectionPresenter" style="swimlane;fontStyle=1;align=center;verticalAlign=top;childLayout=stackLayout;horizontal=1;startSize=26;horizontalStack=0;resizeParent=1;resizeParentMax=0;resizeLast=0;collapsible=1;marginBottom=0;" parent="WIyWlLk6GJQsqaUBKTNV-1" vertex="1"><mxGeometry x="510" y="1255" width="330" height="104" as="geometry"><mxRectangle x="160" y="410" width="80" height="26" as="alternateBounds"/></mxGeometry></mxCell><mxCell id="zq07lOfsanNuQa8wARK5-36" value="+ remove(): void" style="text;strokeColor=none;fillColor=none;align=left;verticalAlign=top;spacingLeft=4;spacingRight=4;overflow=hidden;rotatable=0;points=[[0,0.5],[1,0.5]];portConstraint=eastwest;" parent="vJ88vTQuRLcGK84TbQeg-3" vertex="1"><mxGeometry y="26" width="330" height="26" as="geometry"/></mxCell><mxCell id="zq07lOfsanNuQa8wARK5-40" value="+ getView(): SelectionView" style="text;strokeColor=none;fillColor=none;align=left;verticalAlign=top;spacingLeft=4;spacingRight=4;overflow=hidden;rotatable=0;points=[[0,0.5],[1,0.5]];portConstraint=eastwest;" parent="vJ88vTQuRLcGK84TbQeg-3" vertex="1"><mxGeometry y="52" width="330" height="26" as="geometry"/></mxCell><mxCell id="zq07lOfsanNuQa8wARK5-37" value="- onKeyDown(event: KeyboardEvent): void" style="text;strokeColor=none;fillColor=none;align=left;verticalAlign=top;spacingLeft=4;spacingRight=4;overflow=hidden;rotatable=0;points=[[0,0.5],[1,0.5]];portConstraint=eastwest;" parent="vJ88vTQuRLcGK84TbQeg-3" vertex="1"><mxGeometry y="78" width="330" height="26" as="geometry"/></mxCell><mxCell id="vJ88vTQuRLcGK84TbQeg-4" value="" style="endArrow=diamondThin;endFill=0;endSize=24;html=1;rounded=0;" parent="WIyWlLk6GJQsqaUBKTNV-1" source="lVUzOFcici-vfKjF4Edh-4" target="vJ88vTQuRLcGK84TbQeg-3" edge="1"><mxGeometry width="160" relative="1" as="geometry"><mxPoint x="500" y="1180" as="sourcePoint"/><mxPoint x="660" y="1180" as="targetPoint"/></mxGeometry></mxCell><mxCell id="vJ88vTQuRLcGK84TbQeg-5" value="" style="endArrow=diamondThin;endFill=0;endSize=24;html=1;rounded=0;" parent="WIyWlLk6GJQsqaUBKTNV-1" source="lVUzOFcici-vfKjF4Edh-105" target="vJ88vTQuRLcGK84TbQeg-3" edge="1"><mxGeometry width="160" relative="1" as="geometry"><mxPoint x="500" y="1180" as="sourcePoint"/><mxPoint x="660" y="1180" as="targetPoint"/></mxGeometry></mxCell><mxCell id="vJ88vTQuRLcGK84TbQeg-6" value="" style="endArrow=diamondThin;endFill=0;endSize=24;html=1;rounded=0;" parent="WIyWlLk6GJQsqaUBKTNV-1" source="lVUzOFcici-vfKjF4Edh-70" target="vJ88vTQuRLcGK84TbQeg-3" edge="1"><mxGeometry width="160" relative="1" as="geometry"><mxPoint x="450" y="1390" as="sourcePoint"/><mxPoint x="610" y="1390" as="targetPoint"/></mxGeometry></mxCell><mxCell id="vJ88vTQuRLcGK84TbQeg-7" value="" style="endArrow=diamondThin;endFill=1;endSize=24;html=1;rounded=0;" parent="WIyWlLk6GJQsqaUBKTNV-1" source="Wp4D12kqKLohDoQyKvnD-15" target="Wp4D12kqKLohDoQyKvnD-0" edge="1"><mxGeometry width="160" relative="1" as="geometry"><mxPoint y="1440" as="sourcePoint"/><mxPoint x="160" y="1440" as="targetPoint"/></mxGeometry></mxCell><mxCell id="vJ88vTQuRLcGK84TbQeg-8" value="" style="endArrow=diamondThin;endFill=0;endSize=24;html=1;rounded=0;" parent="WIyWlLk6GJQsqaUBKTNV-1" source="lVUzOFcici-vfKjF4Edh-71" target="Wp4D12kqKLohDoQyKvnD-11" edge="1"><mxGeometry width="160" relative="1" as="geometry"><mxPoint y="1440" as="sourcePoint"/><mxPoint x="160" y="1440" as="targetPoint"/></mxGeometry></mxCell><mxCell id="vJ88vTQuRLcGK84TbQeg-9" value="" style="endArrow=diamondThin;endFill=0;endSize=24;html=1;rounded=0;" parent="WIyWlLk6GJQsqaUBKTNV-1" source="lVUzOFcici-vfKjF4Edh-61" target="Wp4D12kqKLohDoQyKvnD-13" edge="1"><mxGeometry width="160" relative="1" as="geometry"><mxPoint y="1440" as="sourcePoint"/><mxPoint x="160" y="1440" as="targetPoint"/></mxGeometry></mxCell><mxCell id="vJ88vTQuRLcGK84TbQeg-10" value="" style="endArrow=block;dashed=1;endFill=0;endSize=12;html=1;rounded=0;" parent="WIyWlLk6GJQsqaUBKTNV-1" source="Wp4D12kqKLohDoQyKvnD-15" target="zq07lOfsanNuQa8wARK5-8" edge="1"><mxGeometry width="160" relative="1" as="geometry"><mxPoint x="50" y="2030" as="sourcePoint"/><mxPoint x="330" y="2047.6" as="targetPoint"/></mxGeometry></mxCell><mxCell id="zq07lOfsanNuQa8wARK5-8" value="View" style="swimlane;fontStyle=1;align=center;verticalAlign=top;childLayout=stackLayout;horizontal=1;startSize=26;horizontalStack=0;resizeParent=1;resizeParentMax=0;resizeLast=0;collapsible=1;marginBottom=0;" parent="WIyWlLk6GJQsqaUBKTNV-1" vertex="1"><mxGeometry x="60" y="2180" width="330" height="190" as="geometry"><mxRectangle x="160" y="410" width="80" height="26" as="alternateBounds"/></mxGeometry></mxCell><mxCell id="zq07lOfsanNuQa8wARK5-24" value="+ getElement(): TElement" style="text;strokeColor=none;fillColor=none;align=left;verticalAlign=top;spacingLeft=4;spacingRight=4;overflow=hidden;rotatable=0;points=[[0,0.5],[1,0.5]];portConstraint=eastwest;" parent="zq07lOfsanNuQa8wARK5-8" vertex="1"><mxGeometry y="26" width="330" height="26" as="geometry"/></mxCell><mxCell id="zq07lOfsanNuQa8wARK5-27" value="+ render(parent: Element): void" style="text;strokeColor=none;fillColor=none;align=left;verticalAlign=top;spacingLeft=4;spacingRight=4;overflow=hidden;rotatable=0;points=[[0,0.5],[1,0.5]];portConstraint=eastwest;" parent="zq07lOfsanNuQa8wARK5-8" vertex="1"><mxGeometry y="52" width="330" height="26" as="geometry"/></mxCell><mxCell id="zq07lOfsanNuQa8wARK5-26" value="+ remove(): void" style="text;strokeColor=none;fillColor=none;align=left;verticalAlign=top;spacingLeft=4;spacingRight=4;overflow=hidden;rotatable=0;points=[[0,0.5],[1,0.5]];portConstraint=eastwest;" parent="zq07lOfsanNuQa8wARK5-8" vertex="1"><mxGeometry y="78" width="330" height="26" as="geometry"/></mxCell><mxCell id="zq07lOfsanNuQa8wARK5-29" value="" style="line;strokeWidth=1;fillColor=none;align=left;verticalAlign=middle;spacingTop=-1;spacingLeft=3;spacingRight=3;rotatable=0;labelPosition=right;points=[];portConstraint=eastwest;" parent="zq07lOfsanNuQa8wARK5-8" vertex="1"><mxGeometry y="104" width="330" height="8" as="geometry"/></mxCell><mxCell id="zq07lOfsanNuQa8wARK5-28" value="+ getOnClickSignal(): Signal&lt;MouseEvent&gt;" style="text;strokeColor=none;fillColor=none;align=left;verticalAlign=top;spacingLeft=4;spacingRight=4;overflow=hidden;rotatable=0;points=[[0,0.5],[1,0.5]];portConstraint=eastwest;" parent="zq07lOfsanNuQa8wARK5-8" vertex="1"><mxGeometry y="112" width="330" height="26" as="geometry"/></mxCell><mxCell id="zq07lOfsanNuQa8wARK5-30" value="+ getOnMouseDownSignal(): Signal&lt;MouseEvent&gt;" style="text;strokeColor=none;fillColor=none;align=left;verticalAlign=top;spacingLeft=4;spacingRight=4;overflow=hidden;rotatable=0;points=[[0,0.5],[1,0.5]];portConstraint=eastwest;" parent="zq07lOfsanNuQa8wARK5-8" vertex="1"><mxGeometry y="138" width="330" height="26" as="geometry"/></mxCell><mxCell id="zq07lOfsanNuQa8wARK5-31" value="+ getOnMouseMoveSignal(): Signal&lt;MouseEvent&gt;" style="text;strokeColor=none;fillColor=none;align=left;verticalAlign=top;spacingLeft=4;spacingRight=4;overflow=hidden;rotatable=0;points=[[0,0.5],[1,0.5]];portConstraint=eastwest;" parent="zq07lOfsanNuQa8wARK5-8" vertex="1"><mxGeometry y="164" width="330" height="26" as="geometry"/></mxCell><mxCell id="zq07lOfsanNuQa8wARK5-10" value="" style="endArrow=block;dashed=1;endFill=0;endSize=12;html=1;rounded=0;" parent="WIyWlLk6GJQsqaUBKTNV-1" source="lVUzOFcici-vfKjF4Edh-71" target="zq07lOfsanNuQa8wARK5-8" edge="1"><mxGeometry width="160" relative="1" as="geometry"><mxPoint x="-210.0007317073169" y="1839.9999999999995" as="sourcePoint"/><mxPoint x="462.34073170731693" y="2197.9999999999995" as="targetPoint"/></mxGeometry></mxCell><mxCell id="zq07lOfsanNuQa8wARK5-11" value="" style="endArrow=block;dashed=1;endFill=0;endSize=12;html=1;rounded=0;" parent="WIyWlLk6GJQsqaUBKTNV-1" source="lVUzOFcici-vfKjF4Edh-61" target="zq07lOfsanNuQa8wARK5-8" edge="1"><mxGeometry width="160" relative="1" as="geometry"><mxPoint x="59.99926829268307" y="1821.9999999999995" as="sourcePoint"/><mxPoint x="374.3407317073169" y="2179.9999999999995" as="targetPoint"/></mxGeometry></mxCell><mxCell id="zq07lOfsanNuQa8wARK5-12" value="" style="endArrow=block;dashed=1;endFill=0;endSize=12;html=1;rounded=0;" parent="WIyWlLk6GJQsqaUBKTNV-1" source="lVUzOFcici-vfKjF4Edh-69" target="zq07lOfsanNuQa8wARK5-8" edge="1"><mxGeometry width="160" relative="1" as="geometry"><mxPoint x="257.4780487804878" y="1832" as="sourcePoint"/><mxPoint x="236.52195121951218" y="2190" as="targetPoint"/></mxGeometry></mxCell><mxCell id="zq07lOfsanNuQa8wARK5-13" value="" style="endArrow=block;dashed=1;endFill=0;endSize=12;html=1;rounded=0;" parent="WIyWlLk6GJQsqaUBKTNV-1" source="lVUzOFcici-vfKjF4Edh-70" target="zq07lOfsanNuQa8wARK5-8" edge="1"><mxGeometry width="160" relative="1" as="geometry"><mxPoint x="619" y="1832" as="sourcePoint"/><mxPoint x="261" y="2190" as="targetPoint"/></mxGeometry></mxCell><mxCell id="zq07lOfsanNuQa8wARK5-14" value="RectangleView" style="swimlane;fontStyle=1;align=center;verticalAlign=top;childLayout=stackLayout;horizontal=1;startSize=26;horizontalStack=0;resizeParent=1;resizeParentMax=0;resizeLast=0;collapsible=1;marginBottom=0;" parent="WIyWlLk6GJQsqaUBKTNV-1" vertex="1"><mxGeometry x="690" y="2090" width="190" height="52" as="geometry"><mxRectangle x="160" y="410" width="80" height="26" as="alternateBounds"/></mxGeometry></mxCell><mxCell id="zq07lOfsanNuQa8wARK5-15" value="TriangleView" style="swimlane;fontStyle=1;align=center;verticalAlign=top;childLayout=stackLayout;horizontal=1;startSize=26;horizontalStack=0;resizeParent=1;resizeParentMax=0;resizeLast=0;collapsible=1;marginBottom=0;" parent="WIyWlLk6GJQsqaUBKTNV-1" vertex="1"><mxGeometry x="1140" y="2090" width="190" height="52" as="geometry"><mxRectangle x="160" y="410" width="80" height="26" as="alternateBounds"/></mxGeometry></mxCell><mxCell id="zq07lOfsanNuQa8wARK5-16" value="EllipseView" style="swimlane;fontStyle=1;align=center;verticalAlign=top;childLayout=stackLayout;horizontal=1;startSize=26;horizontalStack=0;resizeParent=1;resizeParentMax=0;resizeLast=0;collapsible=1;marginBottom=0;" parent="WIyWlLk6GJQsqaUBKTNV-1" vertex="1"><mxGeometry x="910" y="2090" width="197" height="52" as="geometry"><mxRectangle x="160" y="410" width="80" height="26" as="alternateBounds"/></mxGeometry></mxCell><mxCell id="zq07lOfsanNuQa8wARK5-17" value="" style="endArrow=block;dashed=1;endFill=0;endSize=12;html=1;rounded=0;" parent="WIyWlLk6GJQsqaUBKTNV-1" source="zq07lOfsanNuQa8wARK5-14" target="lVUzOFcici-vfKjF4Edh-69" edge="1"><mxGeometry width="160" relative="1" as="geometry"><mxPoint x="1031.565853658536" y="1831.9999999999995" as="sourcePoint"/><mxPoint x="288.934146341463" y="2189.9999999999995" as="targetPoint"/></mxGeometry></mxCell><mxCell id="zq07lOfsanNuQa8wARK5-18" value="" style="endArrow=block;dashed=1;endFill=0;endSize=12;html=1;rounded=0;" parent="WIyWlLk6GJQsqaUBKTNV-1" source="zq07lOfsanNuQa8wARK5-15" target="lVUzOFcici-vfKjF4Edh-69" edge="1"><mxGeometry width="160" relative="1" as="geometry"><mxPoint x="907.6999999999998" y="2169.9999999999995" as="sourcePoint"/><mxPoint x="1072.8000000000002" y="1831.9999999999995" as="targetPoint"/></mxGeometry></mxCell><mxCell id="zq07lOfsanNuQa8wARK5-19" value="" style="endArrow=block;dashed=1;endFill=0;endSize=12;html=1;rounded=0;" parent="WIyWlLk6GJQsqaUBKTNV-1" source="zq07lOfsanNuQa8wARK5-16" target="lVUzOFcici-vfKjF4Edh-69" edge="1"><mxGeometry width="160" relative="1" as="geometry"><mxPoint x="1549.11737704918" y="2052" as="sourcePoint"/><mxPoint x="1400.002622950819" y="1859.9999999999995" as="targetPoint"/></mxGeometry></mxCell><mxCell id="zq07lOfsanNuQa8wARK5-34" value="" style="endArrow=diamondThin;endFill=1;endSize=24;html=1;rounded=0;" parent="WIyWlLk6GJQsqaUBKTNV-1" source="Wp4D12kqKLohDoQyKvnD-11" target="Wp4D12kqKLohDoQyKvnD-0" edge="1"><mxGeometry width="160" relative="1" as="geometry"><mxPoint x="-330" y="1310" as="sourcePoint"/><mxPoint x="-170" y="1310" as="targetPoint"/></mxGeometry></mxCell><mxCell id="zq07lOfsanNuQa8wARK5-35" value="" style="endArrow=diamondThin;endFill=1;endSize=24;html=1;rounded=0;" parent="WIyWlLk6GJQsqaUBKTNV-1" source="Wp4D12kqKLohDoQyKvnD-13" target="Wp4D12kqKLohDoQyKvnD-0" edge="1"><mxGeometry width="160" relative="1" as="geometry"><mxPoint x="-280" y="1450" as="sourcePoint"/><mxPoint x="-120" y="1450" as="targetPoint"/></mxGeometry></mxCell><mxCell id="zq07lOfsanNuQa8wARK5-54" value="" style="endArrow=diamondThin;endFill=1;endSize=24;html=1;rounded=0;" parent="WIyWlLk6GJQsqaUBKTNV-1" source="zq07lOfsanNuQa8wARK5-14" target="lVUzOFcici-vfKjF4Edh-70" edge="1"><mxGeometry width="160" relative="1" as="geometry"><mxPoint x="590" y="2000" as="sourcePoint"/><mxPoint x="750" y="2000" as="targetPoint"/></mxGeometry></mxCell><mxCell id="5" value="" style="endArrow=diamondThin;endFill=1;endSize=24;html=1;rounded=0;entryX=1;entryY=0;entryDx=0;entryDy=0;" edge="1" parent="WIyWlLk6GJQsqaUBKTNV-1" source="vJ88vTQuRLcGK84TbQeg-3" target="Wp4D12kqKLohDoQyKvnD-13"><mxGeometry width="160" relative="1" as="geometry"><mxPoint x="280" y="1370" as="sourcePoint"/><mxPoint x="440" y="1370" as="targetPoint"/></mxGeometry></mxCell><mxCell id="8" value="" style="endArrow=diamondThin;endFill=1;endSize=24;html=1;rounded=0;" edge="1" parent="WIyWlLk6GJQsqaUBKTNV-1" source="lVUzOFcici-vfKjF4Edh-61" target="Wp4D12kqKLohDoQyKvnD-15"><mxGeometry width="160" relative="1" as="geometry"><mxPoint x="-350" y="2050" as="sourcePoint"/><mxPoint x="-190" y="2050" as="targetPoint"/></mxGeometry></mxCell><mxCell id="9" value="" style="endArrow=diamondThin;endFill=1;endSize=24;html=1;rounded=0;" edge="1" parent="WIyWlLk6GJQsqaUBKTNV-1" source="lVUzOFcici-vfKjF4Edh-71" target="Wp4D12kqKLohDoQyKvnD-15"><mxGeometry width="160" relative="1" as="geometry"><mxPoint x="80" y="1949.8846153846152" as="sourcePoint"/><mxPoint x="-370" y="1854.1153846153843" as="targetPoint"/></mxGeometry></mxCell></root></mxGraphModel></diagram></mxfile>